<svg xmlns="http://www.w3.org/2000/svg" viewBox="0 0 1180 920" font-family="Segoe UI, Arial, sans-serif">
  <defs>
    <marker id="arrowBlue" markerWidth="9" markerHeight="9" refX="7" refY="3.5" orient="auto">
      <path d="M0,0 L0,7 L9,3.5 z" fill="#2563eb"/>
    </marker>
    <marker id="arrowGreen" markerWidth="9" markerHeight="9" refX="7" refY="3.5" orient="auto">
      <path d="M0,0 L0,7 L9,3.5 z" fill="#15803d"/>
    </marker>
    <marker id="arrowOrange" markerWidth="9" markerHeight="9" refX="7" refY="3.5" orient="auto">
      <path d="M0,0 L0,7 L9,3.5 z" fill="#c2410c"/>
    </marker>
    <marker id="arrowPurple" markerWidth="9" markerHeight="9" refX="7" refY="3.5" orient="auto">
      <path d="M0,0 L0,7 L9,3.5 z" fill="#7c3aed"/>
    </marker>
    <style>
      .title { font-size: 24px; font-weight: 700; fill: #111827; }
      .subtitle { font-size: 12px; fill: #4b5563; }
      .panel-title { font-size: 14px; font-weight: 700; fill: #ffffff; }
      .panel-subtitle { font-size: 10px; fill: #dbeafe; }
      .box-title { font-size: 12px; font-weight: 700; fill: #111827; }
      .box-label { font-size: 10px; fill: #4b5563; }
      .small { font-size: 9px; fill: #6b7280; }
      .pill { font-size: 10px; font-weight: 700; }
    </style>
  </defs>

  <rect width="1180" height="920" fill="#f6f8fb"/>
  <text x="590" y="36" text-anchor="middle" class="title">PromptMotionLab Architecture</text>
  <text x="590" y="58" text-anchor="middle" class="subtitle">MVP first: LLM Procedural Gesture Preview + Enriched Prompt Export</text>

  <!-- Unreal editor plugin -->
  <rect x="28" y="86" width="284" height="590" rx="12" fill="#eff6ff" stroke="#2563eb" stroke-width="1.6"/>
  <rect x="28" y="86" width="284" height="42" rx="12" fill="#1d4ed8"/>
  <rect x="28" y="112" width="284" height="16" fill="#1d4ed8"/>
  <text x="170" y="104" text-anchor="middle" class="panel-title">Unreal Editor Plugin</text>
  <text x="170" y="120" text-anchor="middle" class="panel-subtitle">UE5 C++ Editor Tool / Slate</text>

  <rect x="48" y="148" width="244" height="48" rx="7" fill="#ffffff" stroke="#93c5fd"/>
  <text x="170" y="168" text-anchor="middle" class="box-label">Input</text>
  <text x="170" y="184" text-anchor="middle" class="box-title">User Prompt + Target Skeleton</text>

  <rect x="48" y="216" width="244" height="66" rx="7" fill="#ffffff" stroke="#93c5fd"/>
  <text x="170" y="236" text-anchor="middle" class="box-label">Preview</text>
  <text x="170" y="253" text-anchor="middle" class="box-title">Control Rig Driver</text>
  <text x="170" y="269" text-anchor="middle" class="small">Procedural JSON to live pose</text>

  <rect x="48" y="302" width="244" height="76" rx="7" fill="#ffffff" stroke="#93c5fd"/>
  <text x="170" y="322" text-anchor="middle" class="box-label">Import</text>
  <text x="170" y="339" text-anchor="middle" class="box-title">Motion Import / Retarget</text>
  <text x="170" y="355" text-anchor="middle" class="small">FBX / BVH / GLB to target character</text>
  <text x="170" y="370" text-anchor="middle" class="small">IK Rig / IK Retargeter</text>

  <rect x="48" y="398" width="244" height="88" rx="7" fill="#dbeafe" stroke="#2563eb" stroke-width="1.3"/>
  <text x="170" y="418" text-anchor="middle" class="box-label">MVP Preview UI</text>
  <text x="170" y="436" text-anchor="middle" class="box-title">Procedural Gesture</text>
  <text x="170" y="452" text-anchor="middle" class="small">Control Rig preview first</text>
  <text x="170" y="467" text-anchor="middle" class="small">comparison UI later</text>

  <rect x="48" y="506" width="244" height="58" rx="7" fill="#ffffff" stroke="#93c5fd"/>
  <text x="170" y="528" text-anchor="middle" class="box-label">Output</text>
  <text x="170" y="545" text-anchor="middle" class="box-title">AnimSequence Bake</text>

  <rect x="48" y="586" width="244" height="58" rx="7" fill="#f8fafc" stroke="#93c5fd" stroke-dasharray="5,3"/>
  <text x="170" y="609" text-anchor="middle" class="box-label">Editor Assets</text>
  <text x="170" y="626" text-anchor="middle" class="small">Manny Control Rig / IK Rig / Retargeter</text>

  <!-- Backend -->
  <rect x="348" y="86" width="484" height="590" rx="12" fill="#f0fdf4" stroke="#15803d" stroke-width="1.6"/>
  <rect x="348" y="86" width="484" height="42" rx="12" fill="#166534"/>
  <rect x="348" y="112" width="484" height="16" fill="#166534"/>
  <text x="590" y="104" text-anchor="middle" class="panel-title">Motion Generation Server</text>
  <text x="590" y="120" text-anchor="middle" fill="#dcfce7" font-size="10">Python FastAPI / job orchestration / provider registry</text>

  <rect x="376" y="148" width="428" height="70" rx="8" fill="#ffffff" stroke="#86efac"/>
  <text x="590" y="169" text-anchor="middle" class="box-label">LLM Analysis</text>
  <text x="590" y="187" text-anchor="middle" class="box-title">Motion Intent Analyzer</text>
  <text x="590" y="204" text-anchor="middle" class="small">prompt to normalized gesture intent</text>

  <rect x="376" y="238" width="428" height="86" rx="8" fill="#dcfce7" stroke="#15803d" stroke-width="1.4"/>
  <text x="590" y="260" text-anchor="middle" class="box-label">Shared Contract</text>
  <text x="590" y="280" text-anchor="middle" font-size="15" font-weight="700" fill="#14532d">MotionSpec</text>
  <text x="590" y="298" text-anchor="middle" class="small">gesture, hand, emotion, duration, speed, amplitude</text>
  <text x="590" y="313" text-anchor="middle" class="small">feetPlanted, rootMotion, bodyScope, style</text>

  <rect x="376" y="350" width="128" height="112" rx="8" fill="#ffffff" stroke="#86efac"/>
  <text x="440" y="371" text-anchor="middle" class="box-label">Pipeline A</text>
  <text x="440" y="389" text-anchor="middle" class="box-title">Procedural</text>
  <text x="440" y="405" text-anchor="middle" class="box-title">JSON</text>
  <text x="440" y="424" text-anchor="middle" class="small">MotionSpec</text>
  <text x="440" y="438" text-anchor="middle" class="small">to Control Rig</text>

  <rect x="526" y="350" width="128" height="112" rx="8" fill="#ffffff" stroke="#86efac"/>
  <text x="590" y="371" text-anchor="middle" class="box-label">Pipeline B-plain</text>
  <text x="590" y="389" text-anchor="middle" class="box-title">Plain</text>
  <text x="590" y="405" text-anchor="middle" class="box-title">Prompt</text>
  <text x="590" y="424" text-anchor="middle" class="small">original user</text>
  <text x="590" y="438" text-anchor="middle" class="small">prompt to T2M</text>

  <rect x="676" y="350" width="128" height="112" rx="8" fill="#ffffff" stroke="#86efac"/>
  <text x="740" y="371" text-anchor="middle" class="box-label">Pipeline B-enriched</text>
  <text x="740" y="389" text-anchor="middle" class="box-title">Enriched</text>
  <text x="740" y="405" text-anchor="middle" class="box-title">Prompt</text>
  <text x="740" y="424" text-anchor="middle" class="small">MotionSpec</text>
  <text x="740" y="438" text-anchor="middle" class="small">to motion prompt</text>

  <rect x="376" y="488" width="200" height="68" rx="8" fill="#ffffff" stroke="#86efac"/>
  <text x="476" y="510" text-anchor="middle" class="box-label">Providers</text>
  <text x="476" y="528" text-anchor="middle" class="box-title">ManualMotionProvider</text>
  <text x="476" y="544" text-anchor="middle" class="small">register manually downloaded files</text>

  <rect x="604" y="488" width="200" height="68" rx="8" fill="#ffffff" stroke="#86efac"/>
  <text x="704" y="510" text-anchor="middle" class="box-label">Providers Later</text>
  <text x="704" y="528" text-anchor="middle" class="box-title">DeepMotionProvider</text>
  <text x="704" y="544" text-anchor="middle" class="small">automated commercial API later</text>

  <rect x="376" y="586" width="428" height="58" rx="8" fill="#f8fafc" stroke="#86efac" stroke-dasharray="5,3"/>
  <text x="590" y="608" text-anchor="middle" class="box-label">Storage</text>
  <text x="590" y="625" text-anchor="middle" class="box-title">Prompt snapshots + local FBX/BVH/JSON files</text>

  <!-- Commercial / LLM services -->
  <rect x="868" y="86" width="284" height="590" rx="12" fill="#fff7ed" stroke="#c2410c" stroke-width="1.6"/>
  <rect x="868" y="86" width="284" height="42" rx="12" fill="#9a3412"/>
  <rect x="868" y="112" width="284" height="16" fill="#9a3412"/>
  <text x="1010" y="104" text-anchor="middle" class="panel-title">External Services</text>
  <text x="1010" y="120" text-anchor="middle" fill="#fed7aa" font-size="10">LLM + commercial text-to-motion</text>

  <rect x="890" y="148" width="240" height="76" rx="8" fill="#ffffff" stroke="#fdba74"/>
  <text x="1010" y="170" text-anchor="middle" class="box-label">LLM Provider</text>
  <text x="1010" y="188" text-anchor="middle" class="box-title">API LLM first</text>
  <text x="1010" y="206" text-anchor="middle" class="small">Local Gemma/Qwen via PyTorch later</text>

  <rect x="890" y="248" width="240" height="104" rx="8" fill="#ffffff" stroke="#fdba74"/>
  <text x="1010" y="270" text-anchor="middle" class="box-label">Later Manual Web Generation</text>
  <text x="1010" y="288" text-anchor="middle" class="box-title">DeepMotion Web Page</text>
  <text x="1010" y="306" text-anchor="middle" class="small">paste original prompt</text>
  <text x="1010" y="321" text-anchor="middle" class="small">paste enriched prompt</text>
  <text x="1010" y="337" text-anchor="middle" class="small">download FBX / BVH / GLB</text>

  <rect x="890" y="384" width="240" height="76" rx="8" fill="#ffffff" stroke="#fdba74"/>
  <text x="1010" y="406" text-anchor="middle" class="box-label">Optional Worker</text>
  <text x="1010" y="424" text-anchor="middle" class="box-title">Local / Cloud T2M Model</text>
  <text x="1010" y="442" text-anchor="middle" class="small">RunPod / Modal / Colab later</text>

  <rect x="890" y="502" width="240" height="78" rx="8" fill="#fff7ed" stroke="#c2410c" stroke-dasharray="5,3"/>
  <text x="1010" y="524" text-anchor="middle" class="box-label">License Boundary</text>
  <text x="1010" y="542" text-anchor="middle" class="box-title">User-private generated motion</text>
  <text x="1010" y="560" text-anchor="middle" class="small">no global motion sharing in MVP</text>

  <!-- Data flow arrows -->
  <path d="M312,172 L348,172" stroke="#2563eb" stroke-width="2.2" fill="none" marker-end="url(#arrowBlue)"/>
  <text x="330" y="162" text-anchor="middle" font-size="9" fill="#2563eb">HTTP JSON</text>

  <path d="M804,182 L868,182" stroke="#c2410c" stroke-width="2.2" fill="none" marker-end="url(#arrowOrange)"/>
  <path d="M868,204 L804,204" stroke="#c2410c" stroke-width="1.6" stroke-dasharray="5,3" fill="none" marker-end="url(#arrowOrange)"/>
  <text x="836" y="174" text-anchor="middle" font-size="9" fill="#c2410c">LLM</text>

  <path d="M590,218 L590,238" stroke="#15803d" stroke-width="2" fill="none" marker-end="url(#arrowGreen)"/>
  <path d="M590,324 L440,350" stroke="#15803d" stroke-width="2" fill="none" marker-end="url(#arrowGreen)"/>
  <path d="M590,324 L590,350" stroke="#15803d" stroke-width="2" fill="none" marker-end="url(#arrowGreen)"/>
  <path d="M590,324 L740,350" stroke="#15803d" stroke-width="2" fill="none" marker-end="url(#arrowGreen)"/>

  <path d="M654,406 L890,296" stroke="#c2410c" stroke-width="2" fill="none" marker-end="url(#arrowOrange)"/>
  <text x="770" y="337" text-anchor="middle" font-size="9" fill="#c2410c">export original prompt</text>
  <path d="M804,406 L890,324" stroke="#c2410c" stroke-width="2" fill="none" marker-end="url(#arrowOrange)"/>
  <text x="846" y="369" text-anchor="middle" font-size="9" fill="#c2410c">export enriched prompt</text>
  <path d="M890,340 L804,500" stroke="#c2410c" stroke-width="1.8" stroke-dasharray="5,3" fill="none" marker-end="url(#arrowOrange)"/>
  <text x="856" y="438" text-anchor="middle" font-size="9" fill="#c2410c">manual file register</text>

  <path d="M440,462 L440,488" stroke="#15803d" stroke-width="2" fill="none" marker-end="url(#arrowGreen)"/>
  <path d="M590,462 L520,488" stroke="#15803d" stroke-width="2" fill="none" marker-end="url(#arrowGreen)"/>
  <path d="M740,462 L704,488" stroke="#15803d" stroke-width="2" fill="none" marker-end="url(#arrowGreen)"/>

  <path d="M376,522 L312,522" stroke="#2563eb" stroke-width="2.2" fill="none" marker-end="url(#arrowBlue)"/>
  <text x="344" y="512" text-anchor="middle" font-size="9" fill="#2563eb">results</text>

  <path d="M292,440 L348,440" stroke="#7c3aed" stroke-width="1.8" stroke-dasharray="5,3" fill="none" marker-end="url(#arrowPurple)"/>
  <text x="320" y="430" text-anchor="middle" font-size="9" fill="#7c3aed">metrics</text>

  <!-- Bottom stack -->
  <rect x="28" y="714" width="1124" height="156" rx="12" fill="#ffffff" stroke="#cbd5e1"/>
  <text x="590" y="740" text-anchor="middle" font-size="16" font-weight="700" fill="#111827">Recommended Tech Stack</text>

  <rect x="58" y="766" width="194" height="72" rx="8" fill="#eff6ff" stroke="#93c5fd"/>
  <text x="155" y="786" text-anchor="middle" class="pill" fill="#1d4ed8">Unreal Plugin</text>
  <text x="155" y="806" text-anchor="middle" class="small">UE5 C++ Editor Plugin</text>
  <text x="155" y="822" text-anchor="middle" class="small">Slate + FHttpModule</text>

  <rect x="272" y="766" width="194" height="72" rx="8" fill="#f0fdf4" stroke="#86efac"/>
  <text x="369" y="786" text-anchor="middle" class="pill" fill="#166534">Backend</text>
  <text x="369" y="806" text-anchor="middle" class="small">Python FastAPI</text>
  <text x="369" y="822" text-anchor="middle" class="small">Pydantic v2 + Uvicorn</text>

  <rect x="486" y="766" width="194" height="72" rx="8" fill="#f8fafc" stroke="#cbd5e1"/>
  <text x="583" y="786" text-anchor="middle" class="pill" fill="#334155">Data</text>
  <text x="583" y="806" text-anchor="middle" class="small">MotionSpec contracts</text>
  <text x="583" y="822" text-anchor="middle" class="small">SQLite + local storage MVP</text>

  <rect x="700" y="766" width="194" height="72" rx="8" fill="#fff7ed" stroke="#fdba74"/>
  <text x="797" y="786" text-anchor="middle" class="pill" fill="#9a3412">AI / T2M</text>
  <text x="797" y="806" text-anchor="middle" class="small">API LLM now</text>
  <text x="797" y="822" text-anchor="middle" class="small">Local LLM/PyTorch later</text>

  <rect x="914" y="766" width="194" height="72" rx="8" fill="#f5f3ff" stroke="#c4b5fd"/>
  <text x="1011" y="786" text-anchor="middle" class="pill" fill="#6d28d9">Validation</text>
  <text x="1011" y="806" text-anchor="middle" class="small">Python numpy/scipy</text>
  <text x="1011" y="822" text-anchor="middle" class="small">UE preview checks later</text>
</svg>
