<svg xmlns="http://www.w3.org/2000/svg" viewBox="0 0 1240 960" font-family="Segoe UI, Malgun Gothic, Arial, sans-serif">
  <defs>
    <marker id="arrowBlue" markerWidth="9" markerHeight="9" refX="7" refY="3.5" orient="auto">
      <path d="M0,0 L0,7 L9,3.5 z" fill="#2563eb"/>
    </marker>
    <marker id="arrowGreen" markerWidth="9" markerHeight="9" refX="7" refY="3.5" orient="auto">
      <path d="M0,0 L0,7 L9,3.5 z" fill="#15803d"/>
    </marker>
    <marker id="arrowOrange" markerWidth="9" markerHeight="9" refX="7" refY="3.5" orient="auto">
      <path d="M0,0 L0,7 L9,3.5 z" fill="#c2410c"/>
    </marker>
    <marker id="arrowPurple" markerWidth="9" markerHeight="9" refX="7" refY="3.5" orient="auto">
      <path d="M0,0 L0,7 L9,3.5 z" fill="#7c3aed"/>
    </marker>
    <style>
      .title { font-size: 24px; font-weight: 700; fill: #111827; }
      .subtitle { font-size: 12px; fill: #4b5563; }
      .panel-title { font-size: 14px; font-weight: 700; fill: #ffffff; }
      .panel-subtitle { font-size: 10px; fill: #dbeafe; }
      .box-title { font-size: 12px; font-weight: 700; fill: #111827; }
      .box-label { font-size: 10px; fill: #4b5563; }
      .small { font-size: 9px; fill: #6b7280; }
      .pill { font-size: 10px; font-weight: 700; }
    </style>
  </defs>

  <rect width="1240" height="960" fill="#f6f8fb"/>
  <text x="620" y="36" text-anchor="middle" class="title">PromptMotionLab Runtime Architecture</text>
  <text x="620" y="58" text-anchor="middle" class="subtitle">저지연 대화형 3D 캐릭터: STT, LLM Behavior JSON, TTS, Viseme LipSync, Face Preset Layer</text>

  <!-- User and input -->
  <rect x="28" y="90" width="248" height="628" rx="12" fill="#eff6ff" stroke="#2563eb" stroke-width="1.6"/>
  <rect x="28" y="90" width="248" height="42" rx="12" fill="#1d4ed8"/>
  <rect x="28" y="116" width="248" height="16" fill="#1d4ed8"/>
  <text x="152" y="108" text-anchor="middle" class="panel-title">User Input</text>
  <text x="152" y="124" text-anchor="middle" class="panel-subtitle">Voice / Text / Scene Context</text>

  <rect x="48" y="154" width="208" height="62" rx="8" fill="#ffffff" stroke="#93c5fd"/>
  <text x="152" y="176" text-anchor="middle" class="box-label">Voice</text>
  <text x="152" y="194" text-anchor="middle" class="box-title">Push-to-Talk / VAD</text>
  <text x="152" y="209" text-anchor="middle" class="small">16kHz PCM, RMS threshold</text>

  <rect x="48" y="238" width="208" height="62" rx="8" fill="#ffffff" stroke="#93c5fd"/>
  <text x="152" y="260" text-anchor="middle" class="box-label">Text</text>
  <text x="152" y="278" text-anchor="middle" class="box-title">InputWidget</text>
  <text x="152" y="293" text-anchor="middle" class="small">manual prompt fallback</text>

  <rect x="48" y="322" width="208" height="78" rx="8" fill="#dbeafe" stroke="#2563eb" stroke-width="1.3"/>
  <text x="152" y="344" text-anchor="middle" class="box-label">Listening Reaction</text>
  <text x="152" y="362" text-anchor="middle" class="box-title">Immediate Face Preset</text>
  <text x="152" y="379" text-anchor="middle" class="small">thinking / listening</text>
  <text x="152" y="393" text-anchor="middle" class="small">before final answer arrives</text>

  <rect x="48" y="424" width="208" height="82" rx="8" fill="#ffffff" stroke="#93c5fd"/>
  <text x="152" y="446" text-anchor="middle" class="box-label">Scene Context</text>
  <text x="152" y="464" text-anchor="middle" class="box-title">location / object</text>
  <text x="152" y="481" text-anchor="middle" class="small">focusedObjectId</text>
  <text x="152" y="496" text-anchor="middle" class="small">interactionMode</text>

  <rect x="48" y="530" width="208" height="86" rx="8" fill="#f8fafc" stroke="#93c5fd" stroke-dasharray="5,3"/>
  <text x="152" y="552" text-anchor="middle" class="box-label">Input Transport</text>
  <text x="152" y="570" text-anchor="middle" class="box-title">HTTP / WebSocket</text>
  <text x="152" y="588" text-anchor="middle" class="small">/api/runtime/stt/transcribe</text>
  <text x="152" y="603" text-anchor="middle" class="small">/ws/stt optional streaming</text>

  <rect x="48" y="640" width="208" height="52" rx="8" fill="#f8fafc" stroke="#93c5fd"/>
  <text x="152" y="662" text-anchor="middle" class="box-label">Fallback</text>
  <text x="152" y="680" text-anchor="middle" class="box-title">Text-only Runtime</text>

  <!-- Unreal client -->
  <rect x="318" y="90" width="300" height="742" rx="12" fill="#f5f3ff" stroke="#7c3aed" stroke-width="1.6"/>
  <rect x="318" y="90" width="300" height="42" rx="12" fill="#6d28d9"/>
  <rect x="318" y="116" width="300" height="16" fill="#6d28d9"/>
  <text x="468" y="108" text-anchor="middle" class="panel-title">Unreal Runtime Client</text>
  <text x="468" y="124" text-anchor="middle" fill="#ede9fe" font-size="10">PromptMotionRuntimeComponent / UE5 C++</text>

  <rect x="340" y="154" width="256" height="64" rx="8" fill="#ffffff" stroke="#c4b5fd"/>
  <text x="468" y="176" text-anchor="middle" class="box-label">Controller</text>
  <text x="468" y="194" text-anchor="middle" class="box-title">PromptMotionRuntimeComponent</text>
  <text x="468" y="210" text-anchor="middle" class="small">state, request, tick, target mesh</text>

  <rect x="340" y="240" width="256" height="68" rx="8" fill="#ede9fe" stroke="#7c3aed" stroke-width="1.3"/>
  <text x="468" y="262" text-anchor="middle" class="box-label">Realtime Transport</text>
  <text x="468" y="281" text-anchor="middle" class="box-title">Async Turn HTTP / WebSocket</text>
  <text x="468" y="298" text-anchor="middle" class="small">reaction 먼저, final 나중</text>

  <rect x="340" y="330" width="122" height="82" rx="8" fill="#ffffff" stroke="#c4b5fd"/>
  <text x="401" y="352" text-anchor="middle" class="box-label">Face</text>
  <text x="401" y="370" text-anchor="middle" class="box-title">Preset Layer</text>
  <text x="401" y="388" text-anchor="middle" class="small">emotion CSV</text>
  <text x="401" y="403" text-anchor="middle" class="small">lip_sync_mask</text>

  <rect x="474" y="330" width="122" height="82" rx="8" fill="#ffffff" stroke="#c4b5fd"/>
  <text x="535" y="352" text-anchor="middle" class="box-label">LipSync</text>
  <text x="535" y="370" text-anchor="middle" class="box-title">Viseme Layer</text>
  <text x="535" y="388" text-anchor="middle" class="small">Azure ID 0-21</text>
  <text x="535" y="403" text-anchor="middle" class="small">morph weights</text>

  <rect x="340" y="434" width="122" height="82" rx="8" fill="#ffffff" stroke="#c4b5fd"/>
  <text x="401" y="456" text-anchor="middle" class="box-label">Speech</text>
  <text x="401" y="474" text-anchor="middle" class="box-title">Playback</text>
  <text x="401" y="492" text-anchor="middle" class="small">sentence queue</text>
  <text x="401" y="507" text-anchor="middle" class="small">WAV download</text>

  <rect x="474" y="434" width="122" height="82" rx="8" fill="#ffffff" stroke="#c4b5fd"/>
  <text x="535" y="456" text-anchor="middle" class="box-label">Idle</text>
  <text x="535" y="474" text-anchor="middle" class="box-title">Blink / Micro</text>
  <text x="535" y="492" text-anchor="middle" class="small">speaking offset</text>
  <text x="535" y="507" text-anchor="middle" class="small">natural motion</text>

  <rect x="340" y="538" width="256" height="82" rx="8" fill="#ffffff" stroke="#c4b5fd"/>
  <text x="468" y="560" text-anchor="middle" class="box-label">Character Assets</text>
  <text x="468" y="578" text-anchor="middle" class="box-title">SkeletalMesh + Morph Targets</text>
  <text x="468" y="596" text-anchor="middle" class="small">Jaw_Open, V_Open, Mouth_Smile, Brow</text>
  <text x="468" y="611" text-anchor="middle" class="small">Config/PromptMotion CSV로 캐릭터별 튜닝</text>

  <rect x="340" y="642" width="256" height="70" rx="8" fill="#f8fafc" stroke="#c4b5fd" stroke-dasharray="5,3"/>
  <text x="468" y="664" text-anchor="middle" class="box-label">Debug / Metrics</text>
  <text x="468" y="682" text-anchor="middle" class="box-title">Face Debug Widget</text>
  <text x="468" y="699" text-anchor="middle" class="small">latency CSV, morph/viseme tuning</text>

  <rect x="340" y="736" width="256" height="58" rx="8" fill="#faf5ff" stroke="#7c3aed"/>
  <text x="468" y="758" text-anchor="middle" class="box-label">Execution Rule</text>
  <text x="468" y="776" text-anchor="middle" class="box-title">LLM은 의미, Unreal은 실행</text>

  <!-- FastAPI server -->
  <rect x="660" y="90" width="326" height="742" rx="12" fill="#f0fdf4" stroke="#15803d" stroke-width="1.6"/>
  <rect x="660" y="90" width="326" height="42" rx="12" fill="#166534"/>
  <rect x="660" y="116" width="326" height="16" fill="#166534"/>
  <text x="823" y="108" text-anchor="middle" class="panel-title">FastAPI Runtime Server</text>
  <text x="823" y="124" text-anchor="middle" fill="#dcfce7" font-size="10">Server-Python / localhost:8010</text>

  <rect x="684" y="154" width="278" height="72" rx="8" fill="#ffffff" stroke="#86efac"/>
  <text x="823" y="176" text-anchor="middle" class="box-label">Runtime API</text>
  <text x="823" y="194" text-anchor="middle" class="box-title">/api/runtime/turn/async</text>
  <text x="823" y="211" text-anchor="middle" class="small">reaction, responseReady, ttsReady polling</text>

  <rect x="684" y="248" width="278" height="78" rx="8" fill="#dcfce7" stroke="#15803d" stroke-width="1.3"/>
  <text x="823" y="270" text-anchor="middle" class="box-label">Behavior Planner</text>
  <text x="823" y="289" text-anchor="middle" class="box-title">RuntimeCharacterService</text>
  <text x="823" y="307" text-anchor="middle" class="small">reply + emotion + intent + gaze + gestureKey</text>

  <rect x="684" y="348" width="132" height="82" rx="8" fill="#ffffff" stroke="#86efac"/>
  <text x="750" y="370" text-anchor="middle" class="box-label">LLM</text>
  <text x="750" y="388" text-anchor="middle" class="box-title">Routing OpenAI</text>
  <text x="750" y="406" text-anchor="middle" class="small">mini / nano</text>
  <text x="750" y="421" text-anchor="middle" class="small">short route</text>

  <rect x="830" y="348" width="132" height="82" rx="8" fill="#ffffff" stroke="#86efac"/>
  <text x="896" y="370" text-anchor="middle" class="box-label">Fallback</text>
  <text x="896" y="388" text-anchor="middle" class="box-title">Mock / FastPath</text>
  <text x="896" y="406" text-anchor="middle" class="small">timeout safe</text>
  <text x="896" y="421" text-anchor="middle" class="small">debug emotion</text>

  <rect x="684" y="452" width="132" height="82" rx="8" fill="#ffffff" stroke="#86efac"/>
  <text x="750" y="474" text-anchor="middle" class="box-label">STT</text>
  <text x="750" y="492" text-anchor="middle" class="box-title">OpenAI / Azure</text>
  <text x="750" y="510" text-anchor="middle" class="small">transcribe</text>
  <text x="750" y="525" text-anchor="middle" class="small">streaming optional</text>

  <rect x="830" y="452" width="132" height="82" rx="8" fill="#ffffff" stroke="#86efac"/>
  <text x="896" y="474" text-anchor="middle" class="box-label">TTS</text>
  <text x="896" y="492" text-anchor="middle" class="box-title">Azure Speech</text>
  <text x="896" y="510" text-anchor="middle" class="small">WAV + viseme</text>
  <text x="896" y="525" text-anchor="middle" class="small">Mock if no key</text>

  <rect x="684" y="556" width="278" height="78" rx="8" fill="#ffffff" stroke="#86efac"/>
  <text x="823" y="578" text-anchor="middle" class="box-label">Speech Timeline</text>
  <text x="823" y="596" text-anchor="middle" class="box-title">audio URL + duration + visemes</text>
  <text x="823" y="614" text-anchor="middle" class="small">utteranceId, 0-21 viseme id, audio offset</text>

  <rect x="684" y="656" width="278" height="70" rx="8" fill="#f8fafc" stroke="#86efac" stroke-dasharray="5,3"/>
  <text x="823" y="678" text-anchor="middle" class="box-label">Operational Safety</text>
  <text x="823" y="696" text-anchor="middle" class="box-title">timeouts, concurrency limits, metrics</text>
  <text x="823" y="713" text-anchor="middle" class="small">runtime_latency.csv / provider_failures.jsonl</text>

  <rect x="684" y="750" width="278" height="44" rx="8" fill="#f0fdf4" stroke="#15803d"/>
  <text x="823" y="778" text-anchor="middle" class="box-title">Pydantic Contracts + Local Session Store</text>

  <!-- External services -->
  <rect x="1028" y="90" width="184" height="742" rx="12" fill="#fff7ed" stroke="#c2410c" stroke-width="1.6"/>
  <rect x="1028" y="90" width="184" height="42" rx="12" fill="#9a3412"/>
  <rect x="1028" y="116" width="184" height="16" fill="#9a3412"/>
  <text x="1120" y="108" text-anchor="middle" class="panel-title">External AI</text>
  <text x="1120" y="124" text-anchor="middle" fill="#fed7aa" font-size="10">replaceable providers</text>

  <rect x="1046" y="160" width="148" height="74" rx="8" fill="#ffffff" stroke="#fdba74"/>
  <text x="1120" y="182" text-anchor="middle" class="box-label">OpenAI</text>
  <text x="1120" y="200" text-anchor="middle" class="box-title">Behavior JSON</text>
  <text x="1120" y="217" text-anchor="middle" class="small">reply + intent</text>

  <rect x="1046" y="260" width="148" height="74" rx="8" fill="#ffffff" stroke="#fdba74"/>
  <text x="1120" y="282" text-anchor="middle" class="box-label">OpenAI STT</text>
  <text x="1120" y="300" text-anchor="middle" class="box-title">mini-transcribe</text>
  <text x="1120" y="317" text-anchor="middle" class="small">push-to-talk</text>

  <rect x="1046" y="360" width="148" height="74" rx="8" fill="#ffffff" stroke="#fdba74"/>
  <text x="1120" y="382" text-anchor="middle" class="box-label">Azure Speech</text>
  <text x="1120" y="400" text-anchor="middle" class="box-title">TTS + Viseme</text>
  <text x="1120" y="417" text-anchor="middle" class="small">audio offset</text>

  <rect x="1046" y="460" width="148" height="90" rx="8" fill="#fff7ed" stroke="#c2410c" stroke-dasharray="5,3"/>
  <text x="1120" y="482" text-anchor="middle" class="box-label">Later</text>
  <text x="1120" y="500" text-anchor="middle" class="box-title">ElevenLabs</text>
  <text x="1120" y="518" text-anchor="middle" class="small">better voice</text>
  <text x="1120" y="533" text-anchor="middle" class="small">separate lip-sync needed</text>

  <rect x="1046" y="576" width="148" height="90" rx="8" fill="#fff7ed" stroke="#c2410c" stroke-dasharray="5,3"/>
  <text x="1120" y="598" text-anchor="middle" class="box-label">Later</text>
  <text x="1120" y="616" text-anchor="middle" class="box-title">Audio2Face</text>
  <text x="1120" y="634" text-anchor="middle" class="small">audio-driven face</text>
  <text x="1120" y="649" text-anchor="middle" class="small">higher integration cost</text>

  <rect x="1046" y="692" width="148" height="72" rx="8" fill="#ffffff" stroke="#fdba74"/>
  <text x="1120" y="714" text-anchor="middle" class="box-label">Boundary</text>
  <text x="1120" y="732" text-anchor="middle" class="box-title">Provider Interface</text>
  <text x="1120" y="749" text-anchor="middle" class="small">swap without UE rewrite</text>

  <!-- Data flow arrows -->
  <path d="M276,186 L318,186" stroke="#2563eb" stroke-width="2.2" fill="none" marker-end="url(#arrowBlue)"/>
  <text x="297" y="176" text-anchor="middle" font-size="9" fill="#2563eb">audio/text</text>

  <path d="M596,274 L660,194" stroke="#15803d" stroke-width="2.2" fill="none" marker-end="url(#arrowGreen)"/>
  <text x="626" y="223" text-anchor="middle" font-size="9" fill="#15803d">turn request</text>

  <path d="M660,214 L596,286" stroke="#15803d" stroke-width="1.7" stroke-dasharray="5,3" fill="none" marker-end="url(#arrowGreen)"/>
  <text x="628" y="268" text-anchor="middle" font-size="9" fill="#15803d">reaction</text>

  <path d="M660,596 L596,474" stroke="#7c3aed" stroke-width="2.2" fill="none" marker-end="url(#arrowPurple)"/>
  <text x="620" y="548" text-anchor="middle" font-size="9" fill="#7c3aed">timeline</text>

  <path d="M986,386 L1028,196" stroke="#c2410c" stroke-width="2.1" fill="none" marker-end="url(#arrowOrange)"/>
  <text x="1008" y="282" text-anchor="middle" font-size="9" fill="#c2410c">LLM</text>
  <path d="M1028,213 L986,407" stroke="#c2410c" stroke-width="1.5" stroke-dasharray="5,3" fill="none" marker-end="url(#arrowOrange)"/>

  <path d="M986,492 L1028,296" stroke="#c2410c" stroke-width="2.1" fill="none" marker-end="url(#arrowOrange)"/>
  <text x="1008" y="390" text-anchor="middle" font-size="9" fill="#c2410c">STT</text>

  <path d="M986,492 L1028,396" stroke="#c2410c" stroke-width="2.1" fill="none" marker-end="url(#arrowOrange)"/>
  <text x="1010" y="456" text-anchor="middle" font-size="9" fill="#c2410c">TTS</text>
  <path d="M1028,415 L986,594" stroke="#c2410c" stroke-width="1.5" stroke-dasharray="5,3" fill="none" marker-end="url(#arrowOrange)"/>

  <path d="M468,620 L468,642" stroke="#7c3aed" stroke-width="1.8" fill="none" marker-end="url(#arrowPurple)"/>
  <path d="M401,412 L401,434" stroke="#7c3aed" stroke-width="1.8" fill="none" marker-end="url(#arrowPurple)"/>
  <path d="M535,516 L535,538" stroke="#7c3aed" stroke-width="1.8" fill="none" marker-end="url(#arrowPurple)"/>

  <!-- Bottom explanation -->
  <rect x="28" y="862" width="1184" height="70" rx="12" fill="#ffffff" stroke="#cbd5e1"/>
  <text x="620" y="886" text-anchor="middle" font-size="15" font-weight="700" fill="#111827">핵심 설계 원칙</text>
  <text x="620" y="908" text-anchor="middle" class="small">LLM은 원시 morph나 bone 값을 만들지 않고, compact Behavior JSON만 결정한다.</text>
  <text x="620" y="924" text-anchor="middle" class="small">Unreal은 캐릭터별 CSV와 morph target layer를 사용해 표정, 립싱크, 눈깜빡임, 마이크로 표정을 실시간으로 합성한다.</text>
</svg>
